<svg width="25" height="24" viewBox="0 0 25 24" fill="none" xmlns="http://www.w3.org/2000/svg">
<path d="M5 8.625L9.5 3.375" stroke="#262626" stroke-width="1.5" stroke-linecap="round" stroke-linejoin="round"/>
<path d="M20 8.625L15.5 3.375" stroke="#262626" stroke-width="1.5" stroke-linecap="round" stroke-linejoin="round"/>
<path d="M19.4361 20.625H5.56412C5.23934 20.6191 4.92607 20.5037 4.67505 20.2975C4.42404 20.0913 4.25 19.8064 4.18112 19.489L2.04312 10.489C1.98588 10.2735 1.97796 10.0478 2.01994 9.82875C2.06192 9.60972 2.15273 9.40297 2.28562 9.22386C2.41851 9.04476 2.59005 8.89791 2.7875 8.79423C2.98496 8.69055 3.20324 8.63271 3.42612 8.625H21.5741C21.797 8.63271 22.0153 8.69055 22.2127 8.79423C22.4102 8.89791 22.5817 9.04476 22.7146 9.22386C22.8475 9.40297 22.9383 9.60972 22.9803 9.82875C23.0223 10.0478 23.0144 10.2735 22.9571 10.489L20.8191 19.489C20.7502 19.8064 20.5762 20.0913 20.3252 20.2975C20.0742 20.5037 19.7609 20.6191 19.4361 20.625Z" stroke="#262626" stroke-width="1.5" stroke-linecap="round" stroke-linejoin="round"/>
<path d="M8 11.625V17.625" stroke="#262626" stroke-width="1.5" stroke-linecap="round" stroke-linejoin="round"/>
<path d="M12.5 11.625V17.625" stroke="#262626" stroke-width="1.5" stroke-linecap="round" stroke-linejoin="round"/>
<path d="M17 11.625V17.625" stroke="#262626" stroke-width="1.5" stroke-linecap="round" stroke-linejoin="round"/>
</svg>
