<svg width="25" height="24" viewBox="0 0 25 24" fill="none" xmlns="http://www.w3.org/2000/svg">
<path d="M5 8.625L9.5 3.375" stroke="#FF0000" stroke-width="1.5" stroke-linecap="round" stroke-linejoin="round"/>
<path d="M20 8.625L15.5 3.375" stroke="#FF0000" stroke-width="1.5" stroke-linecap="round" stroke-linejoin="round"/>
<path d="M19.4359 20.625H5.56388C5.2391 20.6191 4.92582 20.5037 4.67481 20.2975C4.4238 20.0913 4.24975 19.8064 4.18088 19.489L2.04288 10.489C1.98564 10.2735 1.97771 10.0478 2.0197 9.82875C2.06168 9.60972 2.15249 9.40297 2.28538 9.22386C2.41826 9.04476 2.58981 8.89791 2.78726 8.79423C2.98471 8.69055 3.20299 8.63271 3.42588 8.625H21.5739C21.7968 8.63271 22.015 8.69055 22.2125 8.79423C22.4099 8.89791 22.5815 9.04476 22.7144 9.22386C22.8473 9.40297 22.9381 9.60972 22.9801 9.82875C23.022 10.0478 23.0141 10.2735 22.9569 10.489L20.8189 19.489C20.75 19.8064 20.576 20.0913 20.3249 20.2975C20.0739 20.5037 19.7607 20.6191 19.4359 20.625Z" stroke="#FF0000" stroke-width="1.5" stroke-linecap="round" stroke-linejoin="round"/>
<path d="M8 11.625V17.625" stroke="#FF0000" stroke-width="1.5" stroke-linecap="round" stroke-linejoin="round"/>
<path d="M12.5 11.625V17.625" stroke="#FF0000" stroke-width="1.5" stroke-linecap="round" stroke-linejoin="round"/>
<path d="M17 11.625V17.625" stroke="#FF0000" stroke-width="1.5" stroke-linecap="round" stroke-linejoin="round"/>
</svg>
