<svg width="24" height="24" viewBox="0 0 24 24" fill="none" xmlns="http://www.w3.org/2000/svg">
<g clip-path="url(#clip0_121_1381)">
<path d="M3.75305 13.944V22.194H9.75305V16.194C9.75305 15.7961 9.91109 15.4146 10.1924 15.1333C10.4737 14.852 10.8552 14.694 11.2531 14.694H12.7531C13.1509 14.694 13.5324 14.852 13.8137 15.1333C14.095 15.4146 14.2531 15.7961 14.2531 16.194V22.194H20.2531V13.944" stroke="#FF0000" stroke-width="1.5" stroke-linecap="round" stroke-linejoin="round"/>
<path d="M0.753052 12.444L10.9421 2.25499C11.0814 2.1156 11.2468 2.00502 11.4288 1.92958C11.6109 1.85414 11.806 1.81531 12.0031 1.81531C12.2001 1.81531 12.3952 1.85414 12.5773 1.92958C12.7594 2.00502 12.9248 2.1156 13.0641 2.25499L23.2531 12.444" stroke="#FF0000" stroke-width="1.5" stroke-linecap="round" stroke-linejoin="round"/>
</g>
<defs>
<clipPath id="clip0_121_1381">
<rect width="24" height="24" fill="white"/>
</clipPath>
</defs>
</svg>
