<svg width="24" height="24" viewBox="0 0 24 24" fill="none" xmlns="http://www.w3.org/2000/svg">
<path d="M12 23C11.861 23.0014 11.724 22.9655 11.6028 22.8958C11.1648 22.6458 1 16.7396 1 9.24999C1 7.93822 1.40356 6.65971 2.15352 5.59556C2.90348 4.5314 3.96181 3.73554 5.17861 3.32073C6.3954 2.90591 7.70897 2.89316 8.93325 3.28429C10.1575 3.67541 11.2304 4.45058 12 5.49999C12.7696 4.45058 13.8425 3.67541 15.0668 3.28429C16.291 2.89316 17.6046 2.90591 18.8214 3.32073C20.0382 3.73554 21.0965 4.5314 21.8465 5.59556C22.5964 6.65971 23 7.93822 23 9.24999C23 12.4375 21.1972 15.7083 17.6426 18.9791C16.0285 20.4632 14.271 21.7755 12.3972 22.8958C12.276 22.9655 12.139 23.0014 12 23ZM7.11111 4.66666C5.92255 4.66666 4.78267 5.14955 3.94223 6.00909C3.10178 6.86863 2.62963 8.03441 2.62963 9.24999C2.62963 15 10.1667 20.052 12 21.1979C13.8333 20.052 21.3704 15 21.3704 9.24999C21.3713 8.19043 21.0133 7.16327 20.3572 6.34326C19.7011 5.52325 18.7875 4.96105 17.7718 4.75231C16.7561 4.54357 15.701 4.70119 14.7861 5.19834C13.8712 5.6955 13.153 6.50148 12.7537 7.47916C12.6923 7.632 12.5879 7.76273 12.4537 7.85473C12.3195 7.94673 12.1616 7.99585 12 7.99585C11.8384 7.99585 11.6805 7.94673 11.5463 7.85473C11.4121 7.76273 11.3077 7.632 11.2463 7.47916C10.9072 6.64402 10.333 5.93079 9.59674 5.43003C8.86047 4.92927 7.99531 4.66357 7.11111 4.66666Z" fill="#FF0000"/>
</svg>
