<svg width="24" height="24" viewBox="0 0 24 24" fill="none" xmlns="http://www.w3.org/2000/svg">
<path d="M7.47559 3.33398C8.28841 4.17734 9.26296 4.84812 10.341 5.30619C11.419 5.76427 12.5783 6.00024 13.7496 5.99998C14.9359 6.00032 16.1098 5.75873 17.1996 5.28998" stroke="#FF0000" stroke-width="1.5" stroke-linecap="round" stroke-linejoin="round"/>
<path d="M12 11.25C14.8995 11.25 17.25 8.8995 17.25 6C17.25 3.10051 14.8995 0.75 12 0.75C9.10051 0.75 6.75 3.10051 6.75 6C6.75 8.8995 9.10051 11.25 12 11.25Z" stroke="#FF0000" stroke-width="1.5" stroke-linecap="round" stroke-linejoin="round"/>
<path d="M2.25 23.25C2.25 20.6641 3.27723 18.1842 5.10571 16.3557C6.93419 14.5272 9.41414 13.5 12 13.5C14.5859 13.5 17.0658 14.5272 18.8943 16.3557C20.7228 18.1842 21.75 20.6641 21.75 23.25" stroke="#FF0000" stroke-width="1.5" stroke-linecap="round" stroke-linejoin="round"/>
</svg>
