<svg width="166" height="48" viewBox="0 0 166 48" fill="none" xmlns="http://www.w3.org/2000/svg">
<g clip-path="url(#clip0_2_26)">
<path d="M22.9466 46.7586V9.36572H36.0766V1.56769H0.361694V9.36572H13.4603V46.7586H22.9466ZM79.3618 47.9173C92.5861 47.9173 100.816 38.7727 100.816 24.1475C100.816 9.5223 92.5546 0.408951 79.3618 0.408951C67.551 0.408951 59.6039 7.76852 58.1276 19.9197H51.4368V1.56769H41.9507V46.7586H51.4368V27.7177H58.0645C59.3213 40.2446 67.2368 47.9173 79.3618 47.9173ZM79.3302 8.4262C86.5237 8.4262 91.1409 14.5331 91.1409 24.1475C91.1409 33.7306 86.5237 39.9001 79.3302 39.9001C72.0741 39.9001 67.4879 33.7306 67.4879 24.1475C67.4879 14.5331 72.1683 8.4262 79.3302 8.4262ZM146.991 46.7586V1.56769H137.504V19.9197H117.087V1.56769H107.601V46.7586H117.087V27.7177H137.504V46.7586H146.991Z" fill="#262626"/>
<path d="M155.063 46.7586H165.485V36.4966H155.063V46.7586Z" fill="#FF0000"/>
</g>
<defs>
<clipPath id="clip0_2_26">
<rect width="165.6" height="48" fill="white" transform="translate(0.199951)"/>
</clipPath>
</defs>
</svg>
